<svg width="16" height="16" viewBox="0 0 16 16" fill="none" xmlns="http://www.w3.org/2000/svg">
<g id="Dots-Vertical">
<path id="Union" fill-rule="evenodd" clip-rule="evenodd" d="M8.0013 4.99967C8.46154 4.99967 8.83464 4.62658 8.83464 4.16634C8.83464 3.7061 8.46154 3.33301 8.0013 3.33301C7.54106 3.33301 7.16797 3.7061 7.16797 4.16634C7.16797 4.62658 7.54106 4.99967 8.0013 4.99967ZM8.83464 7.99967C8.83464 8.45991 8.46154 8.83301 8.0013 8.83301C7.54106 8.83301 7.16797 8.45991 7.16797 7.99967C7.16797 7.53944 7.54106 7.16634 8.0013 7.16634C8.46154 7.16634 8.83464 7.53944 8.83464 7.99967ZM8.83464 11.833C8.83464 12.2932 8.46154 12.6663 8.0013 12.6663C7.54106 12.6663 7.16797 12.2932 7.16797 11.833C7.16797 11.3728 7.54106 10.9997 8.0013 10.9997C8.46154 10.9997 8.83464 11.3728 8.83464 11.833Z" fill="#F8F8FB"/>
</g>
</svg>
